<svg xmlns="http://www.w3.org/2000/svg" width="19" height="23" viewBox="0 0 19 23"><g><g><path fill="#eb2315" d="M5.903 10.936C4.19 8.868 4.475 5.324 4.506 4.986c.111-2.557 1.25-3.77 2.184-4.34.93-.564 1.9-.651 2.393-.651h.075c.899.023 1.704.248 2.393.676.926.567 2.046 1.778 2.157 4.315.031.338.316 3.882-1.396 5.95-.778.937-1.833 1.428-3.136 1.456h-.142c-1.303-.028-2.358-.519-3.131-1.456zm.894-.856c.556.678 1.307 1.017 2.286 1.024h.044c.983-.007 1.73-.346 2.29-1.024 1.415-1.7 1.104-4.941 1.1-4.973-.005-.011-.005-.027-.005-.04-.138-3.23-2.18-3.75-3.38-3.78h-.054c-.97 0-3.233.37-3.38 3.78 0 .01-.004.025-.004.04-.005.026-.307 3.28 1.103 4.973zm11.235 10.34a.648.648 0 0 1-.232.302c-.133.087-3.331 2.275-8.682 2.275-5.35 0-8.548-2.182-8.682-2.275a.62.62 0 0 1-.23-.301c-.237-.642-.232-1.91-.228-2.157v-.016c.005-.036.005-.073.005-.117.026-.942.084-3.145 2.015-3.857.013-.002.026-.009.044-.014 2.015-.548 3.674-1.783 3.692-1.797.27-.209.644-.136.836.157a.665.665 0 0 1-.147.89c-.076.055-1.846 1.38-4.06 1.989-1.037.396-1.153 1.582-1.184 2.67 0 .043-.004.08-.004.117-.01.426.022 1.091.093 1.47.725.44 3.567 1.957 7.846 1.957 4.296 0 7.12-1.511 7.841-1.949.072-.381.098-1.044.094-1.471-.005-.04-.005-.08-.005-.118-.03-1.088-.146-2.274-1.183-2.671-2.215-.61-3.985-1.93-4.06-1.99a.665.665 0 0 1-.147-.89.577.577 0 0 1 .836-.159c.017.015 1.685 1.25 3.691 1.8.014.007.031.009.045.014 1.93.707 1.988 2.91 2.015 3.854 0 .043.004.08.004.12v.015c.005.247.01 1.52-.213 2.153z"/></g></g></svg>